<svg xmlns="http://www.w3.org/2000/svg" xmlns:xlink="http://www.w3.org/1999/xlink" width="203.239" height="89.588" viewBox="0 0 203.239 89.588">
  <defs>
    <clipPath id="clip-path">
      <rect id="Rectangle_229" data-name="Rectangle 229" width="203.239" height="89.588" fill="none"/>
    </clipPath>
  </defs>
  <g id="Group_91" data-name="Group 91" clip-path="url(#clip-path)">
    <path id="Path_180" data-name="Path 180" d="M217.491,152.44H202.463c.537,2.8,2.868,4.591,6.2,4.591a7.165,7.165,0,0,0,3.951-1.055,1.818,1.818,0,0,1,2.377.272l.153.175a1.794,1.794,0,0,1-.343,2.641,10.627,10.627,0,0,1-6.243,1.769c-6.394,0-10.545-4.088-10.58-9.754a9.945,9.945,0,0,1,9.706-9.863c5.693-.09,9.874,3.841,9.874,9.9,0,.359-.035.9-.07,1.326m-15.063-2.976h10.866a5.216,5.216,0,0,0-5.417-4.664,5.293,5.293,0,0,0-5.449,4.664" transform="translate(-146.043 -104.169)" fill="#fff"/>
    <path id="Path_181" data-name="Path 181" d="M290.983,120.956v21.159a2.33,2.33,0,0,1-4.661,0V123.25h-3.354a1.955,1.955,0,0,1,0-3.91h6.4a1.616,1.616,0,0,1,1.616,1.616" transform="translate(-207.293 -88.033)" fill="#fff"/>
    <path id="Path_182" data-name="Path 182" d="M363.57,135.654c0,4.985-4.053,8.142-9.181,8.142-6.851,0-10.869-4.412-10.869-12.481,0-8.609,5.023-13.343,12.3-13.343a14.8,14.8,0,0,1,4.586.681,1.958,1.958,0,0,1,1.139,2.721,1.907,1.907,0,0,1-2.3,1.013,9.95,9.95,0,0,0-3.313-.5c-4.734,0-7.712,2.941-7.712,8.644v.035a8.573,8.573,0,0,1,6.708-2.619c4.95,0,8.644,3.014,8.644,7.712m-4.521.216c0-2.619-1.971-4.27-5.02-4.27-3.014,0-5.093,1.831-5.093,4.3,0,2.368,1.863,4.231,5.2,4.231,2.9,0,4.912-1.65,4.912-4.267" transform="translate(-253.402 -87.024)" fill="#fff"/>
    <path id="Path_183" data-name="Path 183" d="M454.174,138.743H451.7v3.444a2.259,2.259,0,1,1-4.518,0v-3.444H435.82a2.411,2.411,0,0,1-1.915-3.875l11.279-14.745a1.993,1.993,0,0,1,3.174,2.411L439.109,134.8h8.215V131.93a2.187,2.187,0,0,1,4.375,0V134.8h2.475a1.973,1.973,0,1,1,0,3.945" transform="translate(-319.71 -88.034)" fill="#fff"/>
    <path id="Path_184" data-name="Path 184" d="M535.3,202.228a2.054,2.054,0,1,1,4.107,0,2.054,2.054,0,1,1-4.107,0" transform="translate(-394.871 -147.642)" fill="#fff"/>
    <path id="Path_185" data-name="Path 185" d="M561.287,170.611c0-4.007,3-6.838,7.238-6.838a6.47,6.47,0,0,1,4.794,1.809,1.312,1.312,0,0,1-.325,2.021l-.185.108a1.364,1.364,0,0,1-1.637-.246,3.762,3.762,0,0,0-2.671-1.037,4.185,4.185,0,0,0,0,8.365,3.764,3.764,0,0,0,2.671-1.037,1.364,1.364,0,0,1,1.637-.246l.181.106a1.311,1.311,0,0,1,.325,2.021,6.481,6.481,0,0,1-4.79,1.836c-4.234,0-7.238-2.855-7.238-6.862" transform="translate(-414.041 -120.81)" fill="#fff"/>
    <path id="Path_186" data-name="Path 186" d="M619.832,170.611c0-4.007,3-6.838,7.113-6.838,4.156,0,7.138,2.831,7.138,6.838s-2.981,6.862-7.138,6.862a6.751,6.751,0,0,1-7.113-6.862m11.094,0a3.975,3.975,0,1,0-3.981,4.183,3.894,3.894,0,0,0,3.981-4.183" transform="translate(-457.228 -120.81)" fill="#fff"/>
    <path id="Path_187" data-name="Path 187" d="M711.837,169.635v6.1a1.565,1.565,0,0,1-3.131,0v-5.7c0-2.378-1.1-3.53-3.006-3.53-2.053,0-3.481,1.352-3.481,4.007v5.222a1.565,1.565,0,0,1-3.13,0v-5.7c0-2.378-1.1-3.53-3.006-3.53-2.078,0-3.481,1.352-3.481,4.007v5.222a1.565,1.565,0,0,1-3.13,0V165.416a1.491,1.491,0,1,1,2.982,0v.212a5.534,5.534,0,0,1,4.383-1.854A5.006,5.006,0,0,1,701.342,166a6.248,6.248,0,0,1,5.011-2.229c3.23,0,5.484,1.829,5.484,5.861" transform="translate(-508.598 -120.81)" fill="#fff"/>
    <path id="Path_188" data-name="Path 188" d="M210.77,43.853l-11.146-1.766a1.948,1.948,0,1,1,.83-3.8l10.868,3.042a1.294,1.294,0,0,1-.551,2.524" transform="translate(-146.043 -28.19)" fill="#58d1b2"/>
    <path id="Path_189" data-name="Path 189" d="M140.251,243.725c1.616,1.125,3.161,2.152,4.672,3.113l.017-1.231c-1.4-.945-2.754-1.885-4.058-2.837-.291-.217-.576-.427-.859-.634h-1.515c0,.11,0,.221.005.332l.493.357c.416.3.832.6,1.246.9" transform="translate(-102.172 -178.614)" fill="#fff"/>
    <path id="Path_190" data-name="Path 190" d="M274.686,247.117l-.133-2.746-.317-5.492-.317,5.492-.133,2.746-.066,1.373-.033.686a6.06,6.06,0,0,1-.073.618,5.307,5.307,0,0,1-2.481,3.643c.588.147,1.246.284,1.942.392a6.48,6.48,0,0,0,1.7-3.9,7.179,7.179,0,0,0,.016-.752l-.033-.687Z" transform="translate(-200.004 -176.213)" fill="#63d7bb"/>
    <path id="Path_191" data-name="Path 191" d="M144.058,62.173l-.194-.06c.25.178.508.356.762.534l.09-17.969L144.6,22.712l-.147-10.983-.037-2.746,0-.338.013-.242a2.192,2.192,0,0,1,.046-.479,2.567,2.567,0,0,1,.1-.468A2.7,2.7,0,0,1,144.719,7a4.271,4.271,0,0,1,4.8-2.586l.494.127.651.217,1.3.435c1.737.58,3.472,1.163,5.217,1.721L167.643,10.3l2.621.825,1.311.413c.231.07.416.136.6.2a4.931,4.931,0,0,1,.538.244,5.3,5.3,0,0,1,2.735,3.8,6.035,6.035,0,0,1,.073.618l.033.686.065,1.373.132,2.746.315,5.491.316-5.491.132-2.746.065-1.373.033-.687a7.185,7.185,0,0,0-.016-.751,6.648,6.648,0,0,0-3.754-5.439c-.241-.109-.482-.214-.683-.292L170.883,9.4l-2.548-1.028L158.112,4.338c-1.7-.677-3.412-1.33-5.122-1.986l-1.282-.492-.642-.246-.31-.1L148.725.658c-.307-.143-.775-.3-1.2-.436a7.427,7.427,0,0,0-1.355-.211A6.631,6.631,0,0,0,143.448.4a7.4,7.4,0,0,0-2.367,1.412A7.743,7.743,0,0,0,138.62,6.66l-.055.69c-.013.218-.013.381-.019.575l-.03,1.117c-.334,11.916-.458,23.833-.467,35.749q0,6.465.062,12.93Z" transform="translate(-101.834 0)" fill="#58d1b2"/>
    <path id="Path_192" data-name="Path 192" d="M164.414,273.8l-2.033-.733-4.642,1.5-5.216,1.722-1.3.434-.651.217-.494.126a4.265,4.265,0,0,1-4.8-2.582,3.978,3.978,0,0,1-.25-.921,2.187,2.187,0,0,1-.045-.479l-.013-.241,0-.338.037-2.746.07-5.2c-2.013-1.227-4.082-2.576-6.282-4.1q.1,6.106.264,12.212l.031,1.117c.007.193.006.356.019.575l.055.69a7.753,7.753,0,0,0,2.463,4.848A7.368,7.368,0,0,0,144,281.318a6.642,6.642,0,0,0,2.727.391,7.417,7.417,0,0,0,1.356-.211,12.655,12.655,0,0,0,1.2-.437l4.119-1.742,2.542-1.1,2.727-1.056,7.267-2.866Z" transform="translate(-102.386 -192.133)" fill="#63d7bb"/>
    <path id="Path_193" data-name="Path 193" d="M81.071,106.461a19.689,19.689,0,0,1,2.145,3.869,12.933,12.933,0,0,1,1.033,4.435A6.7,6.7,0,0,1,82.7,119.36a8.413,8.413,0,0,1-4.235,2.517,17.49,17.49,0,0,1-4.685.529,25.488,25.488,0,0,1-4.628-.477c-1.516-.308-2.944-.722-4.383-1.153l-2.134-.689-2.106-.759a100.367,100.367,0,0,1-16.041-7.8c-2.553-1.524-5.039-3.157-7.476-4.855-1.2-.879-2.419-1.726-3.594-2.633L29.912,101.3l1.618.537H31.5a2.359,2.359,0,0,1-1.516-.474A122.886,122.886,0,0,1,16.766,89.917,89.848,89.848,0,0,1,5.594,76.4q-1.22-1.836-2.313-3.764a33.172,33.172,0,0,1-2.007-4.042A19.893,19.893,0,0,1,.113,64.086a11.131,11.131,0,0,1,.337-4.8,6.875,6.875,0,0,1,1.209-2.231,7.773,7.773,0,0,1,.9-.9,10.11,10.11,0,0,1,1.029-.7A9.442,9.442,0,0,1,8.1,54.375,22.082,22.082,0,0,1,16.616,56.2a28.676,28.676,0,0,0-4.233-.618,18.808,18.808,0,0,0-4.177.1,8.457,8.457,0,0,0-3.646,1.33,4.575,4.575,0,0,0-1.861,2.9c-.487,2.338.309,5.09,1.431,7.415.286.576.639,1.157.992,1.748s.726,1.172,1.112,1.75c.764,1.159,1.593,2.283,2.425,3.4,1.69,2.226,3.5,4.364,5.377,6.447q1.428,1.543,2.895,3.052c1.006.98,1.964,2,3.007,2.947A146.2,146.2,0,0,0,32.855,97.516l-1.536-.473h0a2.365,2.365,0,0,1,1.58.506l.038.03,3.377,2.668c1.129.884,2.3,1.706,3.452,2.565,2.316,1.69,4.692,3.294,7.107,4.834a118.372,118.372,0,0,0,15.084,8.183,70.886,70.886,0,0,0,7.943,3.038,19.242,19.242,0,0,0,8.048.705,6.35,6.35,0,0,0,3.391-1.486,5.315,5.315,0,0,0,1.573-3.37,12.05,12.05,0,0,0-.391-4.159,21.7,21.7,0,0,0-1.453-4.1" transform="translate(0 -40.11)" fill="#58d1b2"/>
    <path id="Path_194" data-name="Path 194" d="M44.692,67.373c.831.9,1.743,1.86,2.851,3.006.331.322.694.688,1.058,1.054.633.637,1.231,1.238,1.862,1.81a145.222,145.222,0,0,0,12.618,10.6l.056-10.524c0-.175,0-.345,0-.521,0-5.557.033-10.849.089-15.932l.1-18.9a36.748,36.748,0,0,0-23.58,23.5c1.437,1.865,3.056,3.8,4.945,5.9" transform="translate(-29.32 -28.009)" fill="#58d1b2"/>
    <path id="Path_195" data-name="Path 195" d="M56.555,187.542l-3.339-2.61-.076-.056q-2.138-1.612-4.124-3.228l-3.648-3.082c-1.978-1.737-3.852-3.5-5.645-5.3a96.314,96.314,0,0,1-6.843-7.621c-.017.465-.028.931-.028,1.4a36.676,36.676,0,0,0,25.015,34.772l.071-13.243c-.463-.337-.927-.68-1.384-1.034" transform="translate(-24.234 -122.191)" fill="#58d1b2"/>
  </g>
</svg>
